<?xml version="1.0" encoding="UTF-8"?>
<svg id="Livello_2" data-name="Livello 2" xmlns="http://www.w3.org/2000/svg" xmlns:xlink="http://www.w3.org/1999/xlink" viewBox="0 0 444.902 190.525">
  <defs>
    <style>
      .cls-1 {
        fill: url(#Sfumatura_senza_nome_14-2);
      }

      .cls-2 {
        fill: url(#Sfumatura_senza_nome_14);
      }

      .cls-3 {
        fill: #031e14;
      }
    </style>
    <linearGradient id="Sfumatura_senza_nome_14" data-name="Sfumatura senza nome 14" x1="34.116" y1="-7.037" x2="121.51" y2="176.627" gradientUnits="userSpaceOnUse">
      <stop offset="0" stop-color="#f6eff7"/>
      <stop offset=".219" stop-color="#f3d9d5"/>
      <stop offset="1" stop-color="#c17361"/>
    </linearGradient>
    <linearGradient id="Sfumatura_senza_nome_14-2" data-name="Sfumatura senza nome 14" x1="2.519" y1="7.998" x2="89.913" y2="191.662" xlink:href="#Sfumatura_senza_nome_14"/>
  </defs>
  <g id="Livello_1-2" data-name="Livello 1">
    <g>
      <g>
        <path class="cls-2" d="M164.284,75.347l-9.688-9.688L88.937,0,23.279,65.658l-9.688,9.688C4.527,84.41,0,96.29,0,108.171s4.527,23.77,13.59,32.834c18.138,18.138,47.531,18.138,65.658,0l9.688-9.688,9.688,9.688c9.064,9.074,20.944,13.601,32.834,13.601s23.76-4.527,32.824-13.601c18.127-18.127,18.127-47.531,0-65.658ZM35.937,86.131l-5.418-5.418,5.418-5.428c11.765-11.765,26.469-18.79,41.748-21.098-10.317,4.382-17.553,14.607-17.553,26.522s7.231,22.133,17.542,26.517c-15.275-2.309-29.976-9.334-41.737-21.096ZM141.937,86.131c-11.762,11.762-26.462,18.787-41.738,21.096,10.311-4.385,17.542-14.606,17.542-26.517s-7.236-22.14-17.553-26.522c15.279,2.307,29.984,9.333,41.749,21.098l5.418,5.428-5.418,5.418Z"/>
        <polygon class="cls-1" points="45.923 189.611 131.951 189.611 88.937 146.597 45.923 189.611"/>
      </g>
      <g>
        <path class="cls-3" d="M200.659,67.912V19.136h15.364c4.918,0,8.8,1.169,11.645,3.506,2.845,2.338,4.268,5.579,4.268,9.725,0,2.277-.601,4.278-1.799,6.005-1.2,1.728-2.896,2.978-5.091,3.75v.975c2.479.732,4.399,2.104,5.762,4.116,1.361,2.012,2.042,4.4,2.042,7.164,0,4.228-1.494,7.54-4.481,9.938-2.987,2.399-7.103,3.597-12.347,3.597h-15.364ZM208.646,39.805h7.316c2.723,0,4.817-.569,6.28-1.707,1.463-1.138,2.195-2.763,2.195-4.878s-.732-3.749-2.195-4.908c-1.463-1.158-3.557-1.737-6.28-1.737h-7.316v13.23ZM208.646,60.473h7.378c2.927,0,5.142-.599,6.646-1.799,1.504-1.198,2.256-2.875,2.256-5.03,0-2.195-.752-3.892-2.256-5.091-1.504-1.198-3.719-1.799-6.646-1.799h-7.378v13.718Z"/>
        <path class="cls-3" d="M241.63,67.912v-7.499h12.194V26.635h-12.194v-7.499h32.314v7.499h-12.194v33.777h12.194v7.499h-32.314Z"/>
        <path class="cls-3" d="M299.064,68.826c-5.041,0-8.973-2.154-11.798-6.463-2.825-4.308-4.237-10.588-4.237-18.84,0-8.454,1.544-14.805,4.633-19.053,3.089-4.247,7.682-6.371,13.779-6.371,3.292,0,6.137.67,8.535,2.012,2.399,1.341,4.299,3.272,5.701,5.792,1.402,2.521,2.225,5.589,2.469,9.207h-7.377c-.61-3.13-1.677-5.508-3.201-7.133-1.524-1.625-3.567-2.439-6.128-2.439-3.577,0-6.21,1.463-7.896,4.39-1.687,2.927-2.529,7.46-2.529,13.596,0,6.341.842,11.005,2.529,13.992,1.686,2.987,4.319,4.481,7.896,4.481,1.625,0,3.11-.518,4.451-1.555,1.342-1.037,2.409-2.439,3.201-4.207.792-1.768,1.189-3.729,1.189-5.883h-9.938v-7.194h16.767v24.753h-6.829v-3.902h-1.951c-.692,1.504-1.85,2.682-3.476,3.536s-3.557,1.28-5.791,1.28Z"/>
        <path class="cls-3" d="M198.951,128.761v-48.776h14.206c6.666,0,11.696,2.053,15.091,6.158,3.393,4.106,5.09,10.182,5.09,18.23s-1.697,14.125-5.09,18.23c-3.395,4.106-8.425,6.158-15.091,6.158h-14.206ZM206.939,121.323h6.219c4.105,0,7.164-1.402,9.176-4.207,2.012-2.804,3.019-7.051,3.019-12.742,0-5.731-1.006-9.989-3.019-12.773-2.012-2.784-5.071-4.176-9.176-4.176h-6.219v33.899Z"/>
        <path class="cls-3" d="M244.374,128.761v-48.776h29.813v7.256h-21.826v13.596h18.777v6.89h-18.777v13.779h21.217v7.256h-29.205Z"/>
        <path class="cls-3" d="M281.809,128.761l12.134-48.776h13.047l12.133,48.776h-8.291l-10.243-42.923h-.732l-10.243,42.923h-7.805ZM289.674,112.97v-7.621h21.583v7.621h-21.583Z"/>
        <path class="cls-3" d="M332.109,128.761v-48.776h7.926v41.276h20.547v7.499h-28.473Z"/>
        <path class="cls-3" d="M200.659,189.611v-48.776h15.364c4.918,0,8.8,1.169,11.645,3.506,2.845,2.338,4.268,5.579,4.268,9.725,0,2.277-.601,4.278-1.799,6.005-1.2,1.728-2.896,2.978-5.091,3.75v.975c2.479.732,4.399,2.104,5.762,4.116,1.361,2.012,2.042,4.4,2.042,7.164,0,4.228-1.494,7.54-4.481,9.938-2.987,2.399-7.103,3.597-12.347,3.597h-15.364ZM208.646,161.504h7.316c2.723,0,4.817-.569,6.28-1.707,1.463-1.138,2.195-2.763,2.195-4.878s-.732-3.749-2.195-4.908c-1.463-1.158-3.557-1.737-6.28-1.737h-7.316v13.23ZM208.646,182.172h7.378c2.927,0,5.142-.599,6.646-1.799,1.504-1.198,2.256-2.875,2.256-5.03,0-2.195-.752-3.892-2.256-5.091-1.504-1.198-3.719-1.799-6.646-1.799h-7.378v13.718Z"/>
        <path class="cls-3" d="M242.789,189.611v-48.776h17.254c3.17,0,5.934.59,8.291,1.768,2.357,1.179,4.187,2.845,5.488,4.999,1.299,2.155,1.952,4.716,1.952,7.682,0,2.724-.662,5.121-1.982,7.195-1.321,2.073-3.161,3.689-5.519,4.847-2.357,1.158-5.101,1.738-8.23,1.738h-9.268v20.547h-7.986ZM250.775,162.297h9.268c2.357,0,4.238-.64,5.64-1.921,1.402-1.28,2.104-2.977,2.104-5.091s-.701-3.8-2.104-5.06c-1.402-1.26-3.283-1.89-5.64-1.89h-9.268v13.962ZM267.969,189.611l-12.926-21.888h8.658l13.291,21.888h-9.023Z"/>
        <path class="cls-3" d="M284.308,189.611v-7.499h12.194v-33.777h-12.194v-7.499h32.314v7.499h-12.194v33.777h12.194v7.499h-32.314Z"/>
        <path class="cls-3" d="M326.987,189.611v-48.776h14.206c6.666,0,11.696,2.053,15.09,6.158,3.394,4.106,5.091,10.182,5.091,18.23s-1.697,14.125-5.091,18.23c-3.394,4.106-8.424,6.158-15.09,6.158h-14.206ZM334.975,182.172h6.219c4.105,0,7.164-1.402,9.176-4.207,2.012-2.804,3.018-7.051,3.018-12.742,0-5.731-1.005-9.989-3.018-12.773-2.012-2.784-5.071-4.176-9.176-4.176h-6.219v33.899Z"/>
        <path class="cls-3" d="M384.421,190.525c-5.041,0-8.973-2.154-11.798-6.463-2.825-4.308-4.237-10.588-4.237-18.84,0-8.454,1.544-14.805,4.633-19.053,3.089-4.247,7.682-6.371,13.779-6.371,3.292,0,6.137.67,8.535,2.012,2.399,1.341,4.299,3.272,5.701,5.792,1.402,2.521,2.225,5.589,2.469,9.207h-7.377c-.61-3.13-1.677-5.508-3.201-7.133-1.524-1.625-3.567-2.439-6.128-2.439-3.577,0-6.21,1.463-7.896,4.39-1.687,2.927-2.529,7.46-2.529,13.596,0,6.341.842,11.005,2.529,13.992,1.686,2.987,4.319,4.481,7.896,4.481,1.625,0,3.11-.518,4.451-1.555,1.342-1.037,2.409-2.439,3.201-4.207.792-1.768,1.189-3.729,1.189-5.883h-9.938v-7.194h16.767v24.753h-6.829v-3.902h-1.951c-.692,1.504-1.85,2.682-3.476,3.536-1.625.854-3.557,1.28-5.791,1.28Z"/>
        <path class="cls-3" d="M415.088,189.611v-48.776h29.814v7.256h-21.827v13.596h18.778v6.89h-18.778v13.779h21.217v7.256h-29.205Z"/>
      </g>
    </g>
  </g>
</svg>