<?xml version="1.0" encoding="UTF-8"?>
<svg id="Livello_2" data-name="Livello 2" xmlns="http://www.w3.org/2000/svg" xmlns:xlink="http://www.w3.org/1999/xlink" viewBox="0 0 177.879 189.611">
  <defs>
    <style>
      .cls-1 {
        fill: url(#Sfumatura_senza_nome_14-2);
      }

      .cls-2 {
        fill: url(#Sfumatura_senza_nome_14);
      }
    </style>
    <linearGradient id="Sfumatura_senza_nome_14" data-name="Sfumatura senza nome 14" x1="34.116" y1="-7.037" x2="121.51" y2="176.627" gradientUnits="userSpaceOnUse">
      <stop offset="0" stop-color="#f6eff7"/>
      <stop offset=".219" stop-color="#f3d9d5"/>
      <stop offset="1" stop-color="#c17361"/>
    </linearGradient>
    <linearGradient id="Sfumatura_senza_nome_14-2" data-name="Sfumatura senza nome 14" x1="2.519" y1="7.998" x2="89.913" y2="191.662" xlink:href="#Sfumatura_senza_nome_14"/>
  </defs>
  <g id="Livello_1-2" data-name="Livello 1">
    <g>
      <path class="cls-2" d="M164.284,75.347l-9.688-9.688L88.937,0,23.279,65.658l-9.688,9.688C4.527,84.41,0,96.29,0,108.171s4.527,23.77,13.59,32.834c18.138,18.138,47.531,18.138,65.658,0l9.688-9.688,9.688,9.688c9.064,9.074,20.944,13.601,32.834,13.601s23.76-4.527,32.824-13.601c18.127-18.127,18.127-47.531,0-65.658ZM35.937,86.131l-5.418-5.418,5.418-5.428c11.765-11.765,26.469-18.79,41.748-21.098-10.317,4.382-17.553,14.607-17.553,26.522s7.231,22.133,17.542,26.517c-15.275-2.309-29.976-9.334-41.737-21.096ZM141.937,86.131c-11.762,11.762-26.462,18.787-41.738,21.096,10.311-4.385,17.542-14.606,17.542-26.517s-7.236-22.14-17.553-26.522c15.279,2.307,29.984,9.333,41.749,21.098l5.418,5.428-5.418,5.418Z"/>
      <polygon class="cls-1" points="45.923 189.611 131.951 189.611 88.937 146.597 45.923 189.611"/>
    </g>
  </g>
</svg>